<svg width="426" height="426" viewBox="0 0 426 426" fill="none" xmlns="http://www.w3.org/2000/svg">
<path fill-rule="evenodd" clip-rule="evenodd" d="M92.7918 121.076L0.86792 213L92.7918 304.924L113.797 283.919L42.878 213L113.797 142.081L92.7918 121.076ZM121.076 92.7919L142.081 113.797L212.584 43.2944L283.502 114.213L304.924 92.7919L213 0.867985L121.076 92.7919ZM283.502 311.787L212.584 382.706L142.081 312.203L121.076 333.208L213 425.132L304.924 333.208L283.502 311.787ZM333.208 304.924L425.132 213L333.208 121.076L311.787 142.498L382.289 213L311.787 283.503L333.208 304.924Z" fill="white"/>
<path d="M236.44 171.656V237.832C236.44 241.587 235.8 245 234.52 248.072C233.24 251.144 231.405 253.747 229.016 255.88C226.712 258.013 223.939 259.677 220.696 260.872C217.453 261.981 213.912 262.536 210.072 262.536C203.245 262.536 197.613 260.787 193.176 257.288C188.739 253.704 185.837 248.712 184.472 242.312L194.712 240.136C195.139 241.928 195.693 243.635 196.376 245.256C197.144 246.792 198.125 248.157 199.32 249.352C200.6 250.461 202.136 251.357 203.928 252.04C205.72 252.723 207.853 253.064 210.328 253.064C215.192 253.064 218.947 251.699 221.592 248.968C224.323 246.152 225.688 241.8 225.688 235.912V181H193.432V171.656H236.44Z" fill="#5CF486"/>
</svg>
